Coordinates
version=1
nRows=16
nColumns=42
inDegrees=yes

Units are S.I. units (second, meters, Newtons, ...)
If the header above contains a line with 'inDegrees', this indicates whether rotational values are in degrees (yes) or radians (no).

endheader
time	pelvis_tilt	pelvis_list	pelvis_rotation	pelvis_tx	pelvis_ty	pelvis_tz	hip_flexion_r	hip_adduction_r	hip_rotation_r	knee_angle_r	knee_angle_r_beta	ankle_angle_r	subtalar_angle_r	mtp_angle_r	hip_flexion_l	hip_adduction_l	hip_rotation_l	knee_angle_l	knee_angle_l_beta	ankle_angle_l	subtalar_angle_l	mtp_angle_l	lumbar_extension	lumbar_bending	lumbar_rotation	sh_tx_r	sh_ty_r	sh_tz_r	sh_plane_elev_r	sh_elev_r	sh_axial_rot_r	elbow_flex_r	pro_sup_r	sh_tx_l	sh_ty_l	sh_tz_l	sh_plane_elev_l	sh_elev_l	sh_axial_rot_l	elbow_flex_l	pro_sup_l
      3.10000000	     -5.01429687	     -0.01878927	      2.34896123	      0.25919294	      0.93816736	     -0.04555786	      1.23062143	     -7.13092285	    -10.23582552	      0.44592025	      0.00778278	     -0.44318393	     -7.22755496	     -7.49999987	      3.06030362	     -3.65701448	    -10.50545729	      1.50524797	      0.02627153	      7.71806867	      3.58562155	     -7.49999987	      2.07209124	     -5.41900928	     -4.93285716	     -0.01179732	     -0.00391645	     -0.00758200	     44.37970185	    114.16306341	      3.20653112	      4.26924980	     26.31109190	     -0.01642033	     -0.00487655	     -0.00690515	     46.92512366	     11.08214492	     -2.89285279	     14.43892310	     43.44688641
      3.11666670	     -4.90877092	     -0.00289848	      2.43910146	      0.26408527	      0.93880646	     -0.04130440	      1.12490304	     -7.14233355	    -10.26227299	      0.44365083	      0.00774317	     -0.45565937	     -7.37744897	     -7.49999987	      2.96547369	     -3.63724209	    -10.49897046	      1.46598573	      0.02558628	      7.71780420	      3.64786509	     -7.49999987	      1.92511839	     -5.44648855	     -4.95854443	     -0.01128839	     -0.00329626	     -0.00757618	     44.58327072	    112.28219765	      3.07047385	      3.99331206	     26.05509804	     -0.01668413	     -0.00485209	     -0.00689402	     47.27287189	     11.13457607	     -2.87807865	     14.28346210	     43.30753060
      3.13333330	     -4.90900991	     -0.02982341	      2.51911022	      0.26372805	      0.93860668	     -0.04122080	      1.15760687	     -7.14065777	    -10.31767893	      0.49494142	      0.00863836	     -0.58232731	     -7.54059217	     -7.49999987	      3.01403841	     -3.66659468	    -10.60186475	      1.53320607	      0.02675949	      7.91976262	      3.77942520	     -7.49999987	      1.70601660	     -5.49792052	     -3.74385767	     -0.01548882	     -0.00436825	     -0.00753715	     43.70884415	    110.52197294	      4.46012272	      3.25476495	     18.73491446	     -0.01779896	     -0.00490877	     -0.00678652	     55.53021308	     12.16078725	     -3.75883428	     11.70589735	     37.12519128
      3.15000000	     -4.78200224	     -0.02681335	      2.59968978	      0.26413952	      0.93621981	     -0.04149599	      1.00570047	     -7.15083673	    -10.42108714	      0.52514546	      0.00916552	     -0.59810726	     -7.61459548	     -7.49999987	      2.87781273	     -3.68633941	    -10.60532139	      1.55739617	      0.02718169	      7.96554491	      3.79919902	     -7.49999987	      1.52820717	     -5.50877649	     -3.81382746	     -0.01650613	     -0.00516735	     -0.00761017	     43.98220999	    109.04072995	      4.12585720	      3.17139310	     18.73398197	     -0.01873531	     -0.00455591	     -0.00669272	     55.67719247	     12.25761460	     -3.65663357	     11.82346721	     37.11914289
      3.16666670	     -4.84953212	      0.01482703	      2.65267341	      0.25948807	      0.93908374	     -0.04564509	      1.15747992	     -7.27261272	    -10.57141327	      0.59124307	      0.01031914	     -0.66612130	     -7.68548607	     -7.49999987	      3.01772103	     -3.59772340	    -10.68982979	      1.60485428	      0.02800999	      8.00408399	      3.85389430	     -7.49999987	      1.62812572	     -5.48398955	     -4.17433682	     -0.01596303	     -0.00490464	     -0.00758625	     44.85280444	    107.12415297	      3.25799834	      2.70989433	     18.43764983	     -0.01853897	     -0.00527017	     -0.00676796	     56.30533394	     12.20507832	     -3.33221570	     11.35761877	     37.03305365
      3.18333330	     -4.85284622	      0.03233412	      2.70099557	      0.25979883	      0.93331274	     -0.04556431	      1.22412732	     -7.36398612	    -10.49724778	      0.60879863	      0.01062554	     -0.73008101	     -8.03518121	     -7.49999987	      3.08754057	     -3.52298062	    -10.66534865	      1.65016716	      0.02880085	      8.13064786	      3.79262593	     -7.49999987	      1.55796382	     -5.32029607	     -4.78020855	     -0.01411825	     -0.00463365	     -0.00757177	     45.72768385	    106.11220769	      2.22499862	      2.54992913	     19.35411951	     -0.02009080	     -0.00536533	     -0.00676785	     56.56947217	     12.28861699	     -2.48498572	     11.17191420	     38.07072722
      3.20000000	     -4.80974676	      0.03202703	      2.74170250	      0.25958399	      0.93369210	     -0.04546654	      1.23712651	     -7.41566008	    -10.55236874	      0.63457574	      0.01107544	     -0.65123959	     -8.11088712	     -7.49999987	      3.09979289	     -3.47723450	    -10.59212953	      1.64664080	      0.02873930	      8.20977914	      3.67094222	     -7.49999987	      1.37654929	     -5.15251664	     -5.03994608	     -0.01422228	     -0.00445397	     -0.00756764	     46.22980537	    105.03726478	      1.28310230	      2.46521652	     20.30690465	     -0.02055488	     -0.00602330	     -0.00672025	     57.11484024	     12.38024650	     -3.84697513	     11.53055723	     39.14742004
      3.21666670	     -4.76891455	      0.00785765	      2.70763925	      0.26444567	      0.93442031	     -0.04119062	      1.19343465	     -7.37173558	    -10.50315561	      0.68128535	      0.01189067	     -0.51626996	     -8.16647411	     -7.49999987	      3.02088923	     -3.53509792	    -10.62875994	      1.66305107	      0.02902572	      8.28824642	      3.63625621	     -7.49999987	      1.42754752	     -5.26691320	     -4.02608488	     -0.01821880	     -0.00508205	     -0.00764109	     45.22091182	    103.44540504	      0.07543301	      2.68805820	     21.33366527	     -0.01839740	     -0.00572213	     -0.00673153	     56.13478403	     12.32568284	     -3.24459808	     11.99518686	     40.38948262
      3.23333330	     -4.80129165	     -0.01575036	      2.69363006	      0.26442016	      0.93161349	     -0.04121699	      1.21393732	     -7.30785328	    -10.40582201	      0.75020965	      0.01309363	     -0.45346573	     -8.40296359	     -7.49999987	      3.03151464	     -3.62283889	    -10.81180228	      1.73737097	      0.03032284	      8.49880058	      3.90259688	     -7.49999987	      1.52294185	     -5.17028373	     -4.61412953	     -0.01691504	     -0.00403524	     -0.00757015	     46.16776367	    101.55203768	      1.07355450	      2.79051896	     19.08716016	     -0.02114739	     -0.00586980	     -0.00657966	     55.92742564	     12.21578625	     -2.24201075	     11.27049943	     39.40732287
      3.25000000	     -4.86081642	      0.00040432	      2.69153357	      0.26031226	      0.93229934	     -0.04580262	      1.29225947	     -7.36388519	    -10.42973067	      0.78839301	      0.01376005	     -0.20503490	     -8.46513924	     -7.49999987	      3.14463999	     -3.59694573	    -10.69001339	      1.81401463	      0.03166053	      8.43859788	      3.65591167	     -7.49999987	      1.66226062	     -5.07794555	     -5.26114304	     -0.01744272	     -0.00398630	     -0.00755192	     46.69994132	    100.08774491	      0.73562855	      3.33368563	     18.79808596	     -0.02219673	     -0.00644319	     -0.00649576	     55.06176714	     11.96815167	     -1.67648889	     11.57529121	     39.44550490
      3.26666670	     -4.89331524	      0.02508442	      2.63249497	      0.26451473	      0.92959868	     -0.04096198	      1.28502919	     -7.35013897	    -10.31016471	      0.76613461	      0.01337157	     -0.20385432	     -8.63967709	     -7.49999987	      3.12491156	     -3.61795781	    -10.79448889	      1.82918932	      0.03192538	      8.55869291	      3.67100409	     -7.49999987	      1.78498846	     -5.08824850	     -5.80014061	     -0.01848530	     -0.00372483	     -0.00755150	     46.31079865	     98.61607493	      0.41460514	      5.31885487	     19.18561995	     -0.02377139	     -0.00672458	     -0.00638988	     53.33137989	     11.77994206	     -2.15859475	     11.87596592	     40.18866630
      3.28333330	     -4.93513580	     -0.00378076	      2.56154135	      0.26065331	      0.93341447	     -0.03610351	      1.34563292	     -7.20400635	    -10.32129104	      0.73395845	      0.01280999	      0.05377556	     -8.56282097	     -7.49999987	      3.16311068	     -3.74887256	    -10.73150948	      1.79318057	      0.03129691	      8.41450608	      3.38375137	     -7.49999987	      1.70201887	     -5.24893042	     -5.34690485	     -0.01874805	     -0.00292650	     -0.00751981	     46.08918712	     96.09717073	      0.32666984	      5.63305062	     19.85645319	     -0.02376178	     -0.00705224	     -0.00632834	     53.14346089	     12.19332782	     -1.94335381	     11.81847926	     40.55555042
      3.30000000	     -5.05937887	      0.00746209	      2.52250369	      0.26455263	      0.93353191	     -0.04079990	      1.41226991	     -7.18212734	    -10.35487288	      0.68585373	      0.01197041	      0.13081134	     -8.51232395	     -7.49999987	      3.31481752	     -3.81628134	    -10.93816347	      1.88000307	      0.03281224	      8.41597883	      3.62758809	     -7.49999987	      1.94968786	     -5.29384498	     -5.03761678	     -0.01855065	     -0.00188732	     -0.00746543	     46.17169445	     93.66360333	      0.37164462	      4.65506662	     19.83185740	     -0.02317275	     -0.00675824	     -0.00629006	     52.05533789	     11.99480593	     -1.33365685	     11.98492960	     40.87078937
      3.31666670	     -5.26102581	      0.00830290	      2.42534160	      0.25635475	      0.93089602	     -0.04056753	      1.71525422	     -7.16648644	    -10.28356118	      0.66538393	      0.01161314	      0.15753241	     -8.60279574	     -7.49999987	      3.62584389	     -3.84063375	    -11.09074418	      1.92186727	      0.03354291	      8.51723748	      3.63781575	     -7.49999987	      2.13043938	     -5.30258054	     -5.07321371	     -0.01717044	     -0.00202663	     -0.00745247	     44.88762399	     92.44739222	     -1.46486969	      7.53130601	     22.00598466	     -0.02233149	     -0.00674650	     -0.00633526	     51.51039961	     12.04696431	     -0.69598591	     12.36796336	     42.17631754
      3.33333330	     -5.36301922	      0.00122150	      2.39308933	      0.25620277	      0.93131251	     -0.04047997	      1.92682117	     -7.13633936	    -10.09180857	      0.65787934	      0.01148216	      0.17199379	     -8.82268385	     -7.49999987	      3.84489923	     -3.86564428	    -10.96028484	      1.95007388	      0.03403521	      8.32330425	      3.34814689	     -7.49999987	      2.11178040	     -5.33585512	     -4.96779079	     -0.01568750	     -0.00107275	     -0.00734027	     44.98556790	     89.61044263	     -2.34206137	      8.17177608	     24.00268939	     -0.02230737	     -0.00686364	     -0.00625054	     52.60404386	     12.33809121	     -0.44848865	     12.05676012	     42.03600116
      3.35000000	     -5.50192597	      0.02908213	      2.39181615	      0.25675326	      0.93189808	     -0.04058748	      2.14591588	     -7.16464311	    -10.07700122	      0.65498593	      0.01143166	      0.11114025	     -8.91521492	     -7.49999987	      4.07194980	     -3.84012908	    -11.13010413	      1.94152230	      0.03388596	      8.14405149	      3.54148764	     -7.49999987	      2.46504562	     -5.83895698	     -3.70438747	     -0.01264168	     -0.00202094	     -0.00754974	     41.40087090	     87.18192097	     -4.70936177	     12.71077274	     26.11970714	     -0.01502898	     -0.00522948	     -0.00666215	     50.40722416	     12.04417526	     -0.04112746	     12.84698143	     42.67298650
